<svg width="358" height="157" viewBox="0 0 358 157" fill="none" xmlns="http://www.w3.org/2000/svg">
<path fill-rule="evenodd" clip-rule="evenodd" d="M83.3192 1.60673C95.8624 4.35405 107.352 10.5215 116.489 19.3836C120.485 22.9147 123 28.0429 123 33.75C123 44.4012 114.242 53.0357 103.437 53.0357C98.1276 53.0357 93.3119 50.9502 89.7872 47.5648L89.7589 47.5913C84.4117 42.0358 76.8509 38.5714 68.4692 38.5714C52.263 38.5714 39.1253 51.5232 39.1253 67.5C39.1253 83.4768 52.263 96.4286 68.4692 96.4286C76.6415 96.4286 84.0335 93.1351 89.354 87.8211L89.3757 87.8422C92.9324 84.2177 97.918 81.9643 103.437 81.9643C114.242 81.9643 123 90.5988 123 101.25C123 106.957 120.485 112.086 116.488 115.617C107.016 124.804 95.0307 131.081 81.9903 133.671C68.6209 136.326 54.7518 134.984 42.1607 129.818C29.5697 124.652 18.8304 115.897 11.3194 104.675C3.80847 93.4525 -0.13191 80.2747 0.00336998 66.8304C0.13865 53.3862 4.34342 40.288 12.0787 29.2149C19.814 18.1418 30.7274 9.59828 43.4199 4.67947C56.1125 -0.239327 70.0058 -1.30929 83.3192 1.60673Z" fill="#0F172A"/>
<path fill-rule="evenodd" clip-rule="evenodd" d="M211.366 75.1899C204.338 82.1461 192.945 82.1461 185.917 75.1899L184.991 74.2729C184.95 74.2329 184.909 74.1926 184.868 74.152L176.988 66.3527V117.188C176.988 127.025 168.932 135 158.994 135H154.995C145.057 135 137 127.025 137 117.188V19.2195C137 11.9661 141.38 5.72535 147.664 2.94716C154.271 -1.2343 163.033 -0.72121 169.11 4.48642C170.911 5.70006 172.477 7.22859 173.728 8.99198L198.659 33.6702L227.404 5.21713C234.431 -1.73905 245.825 -1.73904 252.852 5.21713L254.729 7.0753C258.546 10.8528 260.289 15.9048 259.961 20.8471C259.963 20.964 259.964 21.0812 259.964 21.1986V117.188C259.964 127.025 251.908 135 241.97 135H237.971C228.033 135 219.976 127.025 219.976 117.188V66.667L211.366 75.1899Z" fill="#0F172A"/>
<rect x="274" y="125" width="84" height="32" rx="16" fill="#FCD359"/>
</svg>
